<svg id="Layer_1" data-name="Layer 1" xmlns="http://www.w3.org/2000/svg" viewBox="0 0 478 478"><title>drewandjen_small</title><path d="M309.93,296.4c0-4.81-.18-8.63,0-12.43.44-7.82,1-15.64,1.67-23.44.27-3.18,1.08-6.18-.89-9.32a11.21,11.21,0,0,1-1.19-6.45c.79-10.21-1.51-20.53,1.27-30.69.55-2-.13-4.36-.26-6.55-.37-6.38-.74-12.76-1.17-20.07-2.94-1-6.23-2.34-9.65-3.24-4-1.05-6.2-3.21-5.85-6.3.31-2.67,3.08-5.06,6.6-5.08s7.2.45,10.8.73a5.19,5.19,0,0,0,4.72-1.92c2.43-2.71,3.89-2.89,5.75-.2,2.48,3.59,6.39,4.69,9.78,5.2,12.57,1.87,23.78,7.25,34.72,13a26.2,26.2,0,0,1,12.42,13.55c2.49,6.46,7.79,11.72,8.1,19.1,0,.39.27.77.31,1.16,1.51,15.62,3.1,31.27-3.48,46.24a57.4,57.4,0,0,1-5.57,9.84c-8.36,11.91-20.23,18.53-34,22.34-5.76,1.59-11.25,4.27-17,5.63-7.15,1.68-14.38,3.77-21.93,2.1-2.93-.65-5.95-1-8.94-1.34-2.73-.35-4.95-1.36-6.41-3.86-2.54-4.34.55-10,5.26-9.35,1.59.23,3.19.41,4.79.55C302.95,295.87,306.12,296.1,309.93,296.4ZM322,188.8c-2,35.36.79,70.47-.4,106.67,4.28-1.47,7.64-2.5,10.91-3.8,2.39-.94,4.93-1.56,6.77.31s3.48,1.6,5.39.72c4.92-2.28,10.33-3.91,14.59-7.08,6.63-4.93,12.23-11,13.91-19.76,1.74-9,3.11-18,2.16-27.35-1.65-16.17-4.94-30.86-20.56-40.33-8.93-5.41-18.29-7.93-28.15-9.76C325.32,188.18,323.9,188.62,322,188.8Z"/><path d="M153.51,442.32C114,420.83,86.81,392.23,64.26,359.2c-10-14.63-17.58-30.95-25.65-46.81-7.34-14.43-7.4-30.48-7.35-46.07.06-20.78,1.22-41.62,3-62.33,2.68-31.52,15.26-58.9,37-82,1.28-1.35,3.15-2.36,3.93-3.94,6.09-12.31,17.77-19.18,28.1-26.52a401.48,401.48,0,0,0,39.45-32.43c7.16-6.59,17-10.23,24.28-16.75,14.46-13,33.28-14,50.22-20.13,2.72-1,5.91-.61,8.87-1,9.13-1.21,18.23-3.11,27.4-3.52a64.33,64.33,0,0,1,20.9,2.18c13.84,4.12,27.39,9.25,40.93,14.32,9.79,3.67,19.68,7.32,28.95,12.09a72.64,72.64,0,0,1,18,13.13C374,71.33,385.79,83.39,396.3,96.4c8.49,10.51,15.59,22.25,22.43,34,5.42,9.27,11.25,18.9,13.73,29.14,2.86,11.77,8.71,22.76,8.38,35.59-.27,10.61,2.32,21.29,3.44,32a38.85,38.85,0,0,1-.17,8.93c-1.73,13.55-3.8,27.07-5.41,40.63-1.39,11.71-1.37,23.68-3.76,35.16-2.33,11.17-5.49,22.65-10.91,32.56-6.89,12.61-16.36,23.82-24.83,35.55-3.69,5.11-8,9.82-11.46,15.06-13.65,20.51-32.43,34.68-54.32,45.39-18.92,9.26-38.94,15.37-59.2,20.33-18.59,4.55-37.71,4.39-56.79,1.88C193.41,459.37,170.65,452.7,153.51,442.32ZM332.66,56.5c-13.75-4.61-27.37-9.68-41.3-13.68-11.42-3.28-23.12-6.89-34.85-7.55-43.76-2.44-81,13.48-113.42,42.34-12.26,10.92-25.18,21.09-37.75,31.66-2.86,2.4-5.91,4.72-8.21,7.6-11,13.7-22.82,26.87-32.13,41.63C57.61,170.22,51.13,183,49.23,197.41c-1.07,8.15-2.73,16-.62,24.27a21.67,21.67,0,0,1-.16,10C43.15,254,48.35,275.32,55,296.2c3.09,9.75,9.25,18.53,14,27.73,10,19.17,34.18,51.38,49.11,64.46,20.54,18,41.6,34.75,68.69,43,25.58,7.77,51,11.21,77.31,6.32,8.42-1.56,16.7-4,25.15-5.35A131.19,131.19,0,0,0,338,413.93c13-8,26-16.23,35.53-28.51,6.41-8.22,12.56-16.65,18.79-25C407.47,340,421.23,319.46,424.92,293c2.87-20.59,6.87-41,8.16-61.85a142.11,142.11,0,0,0-11.51-64.54c-7.37-17.37-15.72-34.57-27.45-49.82C376.51,93.91,358.95,71.13,332.66,56.5Z"/><path d="M224.24,280.09c-.06-1.2-.47-2.43-.09-3.32,1.23-2.9,0-4.9-1.53-7.3-5.83-9.21-11.69-18.42-16.9-28-4.41-8.08-6-17.17-6.2-26.28-.26-9.84,5.83-14,13.31-15.83,1.92-.47,4.6,1,6.58,2.19a32.54,32.54,0,0,1,7.25,5.68c2.89,3.13,5.28,6.71,8.36,10.71a43.94,43.94,0,0,0,5.82-4.79c5.88-6.55,13.88-8.42,21.85-10.5,4.59-1.2,12.2,5.64,12.24,9.33a9,9,0,0,1-2.09,5.08c-2.27,2.9-5.38,5.31-3.1,9.68.35.66-.14,1.72-.06,2.58.22,2.65-4.66,2.1-3.38,5s-1,4.55-1.79,6.57c-.7,1.68-2.6,2.83-3.88,4.29-2.27,2.58-4.64,5.11-6.68,7.87-2.47,3.35-4.62,6.94-7,10.39-2.22,3.27-5,6.25-6.68,9.78-3,6.35-4.38,7.59-11.37,7.5-1.11,0-2.21,0-3.32,0A7.22,7.22,0,0,1,224.24,280.09ZM262.16,213a9.82,9.82,0,0,0-2,0c-11.18,3.38-18,12.38-18.2,24,0,.67,0,1.34-.09,2-.4,4.2-1.88,4.26-8.64,5.06-2.88.34-4.72-1.48-4.62-5.13.26-9.23-4.31-16.13-10.08-22.57-1.9-2.12-3.87-4.09-7.14-3.8.83,12.66,1.08,14.1,6.55,24.43,2.89,5.47,6.59,10.53,9.31,16.08a20.58,20.58,0,0,0,7.33,8.67,184.77,184.77,0,0,0,24.09-32.61C261.26,224.8,263.84,219.25,262.16,213Z"/><path d="M172.19,184.84c.13,9.56.32,18.17.33,26.78,0,11.33-.09,22.66-.14,34,0,.67.28,1.44,0,2-3.69,8.67-2.75,18.23-5.27,27.11a19.76,19.76,0,0,0-.87,3.91c-.6,8.41-5.56,13.74-12.45,17.67-5,2.84-9.74,6.48-15.1,8.07-6.5,1.93-13.63,3.27-20.3,2.71-10.06-.84-19.81-4.54-27-11.91-3.5-3.6-5-9.31-6.84-14.25-.41-1.07,1-3.31,2.18-4.36s3.16-1.45,4.72-2.1c3.47,1.11,4.12,4.08,4.76,6.86.91,3.93,3.25,6.74,6.22,9.23,7.53,6.31,16.49,9.93,25.95,8.52,6.89-1,14.17-3.16,20-7.86,3.64-2.92,6.12-6.53,6.74-11.18q2.75-20.84,5.29-41.7c.65-5.31,1.63-10.69,1.36-16-.63-12.63-1.91-25.23-3-38.54-7,0-13.44.18-19.82-.07a37.17,37.17,0,0,1-9.82-1.68c-2.15-.69-3.94-2.51-5.95-3.86,2-4.94,5.67-5.58,9.57-5.28,6.21.48,12.38,1.5,18.59,1.77,13.13.58,26.27.84,39.41,1.22.67,0,1.34-.07,2,0,4.14.19,6.94,2.34,6.59,5s-3.64,4.83-7.22,4.6c-5.28-.34-10.55-.86-15.84-1.16A22,22,0,0,0,172.19,184.84Z"/></svg>