<svg id="Layer_1" data-name="Layer 1" xmlns="http://www.w3.org/2000/svg" viewBox="0 0 822 641.33"><title>drewandjen</title><path d="M402.51,345c3-4.1,1.81-6.73-.49-9.31-3.28-3.69-6.36-7.56-9.6-11.28-4.9-5.61-10.14-11-14.73-16.81-3.66-4.66-7.83-9.13-9.89-14.83-1.93-5.32-3.23-10.85-.58-16.36,2.52-5.23,7.35-7.57,12.41-9.55a2.37,2.37,0,0,1,1.33,0c5,1.23,10.12,2.28,15.07,3.8,5.18,1.59,9.7,4.36,12.7,9.79,2.36-1.89,4.39-3.79,6.68-5.31,5.39-3.56,11-6.53,17.86-5.67,3.24.4,6.56.12,9.84.3a34.63,34.63,0,0,1,4.85.81c2.38.48,3.38,1.71,3.39,4.38,0,3.4,1,6.77,1.25,10.18a10.77,10.77,0,0,1-.82,5.13,67.83,67.83,0,0,1-8.92,14.93c-3,3.63-6.23,7.08-9.31,10.66-1.17,1.35-2.14,2.87-3.3,4.23-4.28,5-8.63,9.85-12.88,14.83a19.61,19.61,0,0,0-2.42,3.75c-1.7,3.3-4.68,5-7.91,6.25C406.05,345.32,404.79,345,402.51,345Zm9.31-13.19c1.26-1.16,2.38-2.12,3.42-3.16,2.11-2.12,4.29-4.18,6.23-6.44,6.26-7.27,12.63-14.47,18.58-22,4.89-6.18,5.11-13.61,4.21-21.08-.2-1.65-.82-3.26-2.82-3.64-7.43-1.44-14.9-1.63-21,3.49-3.12,2.64-7.66,4.8-7.53,10.17a6.55,6.55,0,0,1-1.2,2.87c-.94,1.71-4.9,3.44-7,3.06-2.39-.44-2.18-2.5-2.61-4.2a25.44,25.44,0,0,0-5-10.45c-3.69-4.42-9-5.09-14.13-6.15s-7.64,1.13-7.68,6.43a18.8,18.8,0,0,0,.62,4c1.46,6.82,5.27,12.39,9.71,17.54,6.29,7.27,12.73,14.4,19.1,21.6C407.07,326.38,409.32,329,411.82,331.8Z"/><path d="M512,404.51c10.5-10.85,13.38-24.35,17.92-36.88l-6.76-5.05c-.25-2.3,1.26-2.64,2.5-3a39.38,39.38,0,0,1,20.47.06c1.28.36,2.59.78,2.52,2.62s-.56,3.25-2.6,3.62a2.57,2.57,0,0,1-.44.08c-5.41,0-7.31,3.8-8.76,8.09-1.68,5-3.25,10-5.16,14.84-.64,1.64-2.16,2.93-3.68,4.89.5,1.59-.11,3.38-2.32,4.9-1.23.85-1.93,2.57-2.69,4-1.89,3.53-3.67,7.12-5.49,10.69-1.22,2.4-3.09,3.59-5.84,3.11-2.55-.45-4.5-1.57-5.12-4.34q-2.06-9.21-4.21-18.4c-.78-3.34-1.66-6.66-2.64-10.57-1.15,1.05-2.11,1.57-2.52,2.37-1.91,3.72-5.09,6.45-7.42,9.8a99.16,99.16,0,0,0-5.58,9.69c-1.9,3.53-3.56,7.19-5.54,10.67-1.85,3.24-8.08,2.74-9.7-.84a43.16,43.16,0,0,1-2.46-7.66c-1.7-7-3.17-14-4.89-21-1.25-5.09-2.75-10.12-4.12-15.18a4.73,4.73,0,0,0-3-3.51c-1.94-.84-3.43-2.72-5.22-4.23,1.21-3.13,3.73-4.23,6.63-4.66A34,34,0,0,1,471.67,360c1.51,4.88-1.7,6.22-5.31,7.37a14.14,14.14,0,0,0,0,2.23q2.17,13.05,4.4,26.09c.1.58.13,1.5.47,1.64,2.78,1.23,2,4.52,4,6.53.67-1,1.35-1.91,1.95-2.88q7.72-12.59,15.41-25.19a8.59,8.59,0,0,0,1-2c.67-2.3,2-3.59,4.54-3.51,2.66.08,5.07.55,6.14,3.43,2,5.42,5.42,10.46,4.3,16.7a2.62,2.62,0,0,0,.11,1.77C511.24,395.65,510.8,399.87,512,404.51Z"/><path d="M435.88,199c-.52,10.9-2,21,1.23,31.26,3.95.28,8.55-1.52,12,2.85-2.7.92-5.07,1.71-7.43,2.53-2,.68-3.92,1.37-5.86,2.12-.69.27-1.27,1-2,1.05a20.59,20.59,0,0,1-15-3.69c1.37-4.3,5-4.21,8.28-4.87a14.3,14.3,0,0,0-.4-2.35,18.61,18.61,0,0,1-1.08-9.7c.35-2.13-.49-4.44-.42-6.65.12-4.15.47-8.3.81-12.44.25-3.12.8-6.22.92-9.34.19-4.76.17-4.82,5.11-6a29.4,29.4,0,0,0,3.81-1.54c.62,1.45,1.14,2.73,1.71,4s.92,2.93,1.9,3.8c7.3,6.41,14.87,12.54,22.1,19,4.21,3.79,8,8.1,11.92,12.17.5.52,1,1,1.93,1.85a12.79,12.79,0,0,0,1.11-3.07c.35-6.13.79-12.26.8-18.39,0-5.09-.61-10.18-.81-15.28-.1-2.68-.34-5.08-3.31-6.23-.56-.22-.85-1.14-1.38-1.89a11.36,11.36,0,0,1,8.33-3.87c4.49-.05,9,.33,13.48.61a8.39,8.39,0,0,1,2.59.7,3.94,3.94,0,0,1,2.63,4.25,3.37,3.37,0,0,1-3.22,3.22c-2.64.4-5.33.43-8.5.65a32.7,32.7,0,0,0-.41,4.11c.09,5.33,1,10.68-.65,15.94a3.2,3.2,0,0,0,.09,1.77c2.7,8.64.52,16.87-2,25.07-.27.86-.56,1.71-.87,2.65-2.52,1.14-5.45-.28-8,1.24-.58.34-2.41-.91-3.33-1.79-4.75-4.51-9.65-8.9-14-13.79a123.2,123.2,0,0,0-12.64-11.81c-2.38-2-4.52-4.34-6.82-6.47A22.25,22.25,0,0,0,435.88,199Z"/><path d="M374.34,394.27c1.39,9.26,7.49,13.54,16,15.27,1.9.39,3.86.5,5.79.77a5.93,5.93,0,0,1,2.56.55,3.91,3.91,0,0,1,1.56,2.41c.06.55-1,1.35-1.68,1.79a4.7,4.7,0,0,1-2.16.59c-8.3.51-16.12-.91-23-6a20.37,20.37,0,0,1-6.71-8.86c-.56-1.36-1.18-2.69-1.53-3.48-3.14,0-5.76,0-8.38,0a5.42,5.42,0,0,0-2.09.52c-1.26.59-2.47,1.3-4.18,2.21l1.31,12.81,8.62.66c0,5.05-.23,5.4-4.16,6.55-6.36,1.86-12.69,2.09-19-.25-2.45-.91-2.63-2.23-.52-3.79,1.44-1.06,3.07-1.86,5.28-3.18,0-3.13.19-6.71-.1-10.24a6.33,6.33,0,0,0-2.17-3.62c-3.5-3.15-3.5-4,.47-6.45l1.25-.78,2-17.65a71.2,71.2,0,0,1-5.72-4.48c-1.5-1.43-1.2-3.06.64-4.06a14.54,14.54,0,0,1,4.45-1.76,38.93,38.93,0,0,1,6.74-.32c7.93.11,15.85.46,23.77.41a35.33,35.33,0,0,1,13.41,3c2.18.87,4,3,5.54,4.92.7.91.57,2.92.09,4.14a14.45,14.45,0,0,1-3.18,4.77c-2.89,2.88-3.68,7.39-7.56,9.45C379.19,391.51,376.77,392.92,374.34,394.27Zm-21.58-22.21c-.39,4.59-.84,9.2-1.15,13.82-.4,6.17-.35,6.13,5.77,6.24a30.77,30.77,0,0,0,18.23-5.43c4.08-2.79,7.84-6.1,8.72-11.46.46-2.78-.09-3.77-2.78-4.67-8.57-2.85-17.14-2.07-25.7.06A18.91,18.91,0,0,0,352.75,372.06Z"/><path d="M279.68,414.79l6.1-4.13c.41-6.75,1-13.16,1.16-19.59.2-6.24,0-12.48,0-18.64-7.74-1-7.74-1-10.13-4.77a30.48,30.48,0,0,1,4.17-2.15c3.52-1.2,7.08-2.33,10.69-3.25a35.15,35.15,0,0,1,19.06.68c2.79.84,5.57,1.4,8,3.57,10,8.8,10.86,23.54,1.44,33-3.78,3.77-7.14,8.09-12.4,10.11a4,4,0,0,0-2.25,2.05c-.91,3-3.43,3.5-5.88,4.16-2,.54-4.3.59-6.07,1.56-4.79,2.63-8.92.52-13.15-1.28C280.16,416,280,415.38,279.68,414.79Zm15.23-5.35c3.15-1.15,5.86-1.91,8.36-3.11,4.14-2,6.89-5.62,10-8.86,3.85-4,5.71-8.61,5.13-14.19-.47-4.54-1.17-9-5.2-11.91-2.55-1.87-5.31-4-8.53-3.35s-6.35,2.27-9.76,3.57Z"/><path d="M381.06,190.46,380,207.66a57,57,0,0,0,6.62.51c6.14-.22,12.28-.7,18.42-.92,1.4-.05,3.22.07,4.15.9,2.26,2,1.26,5-1.75,5.71a31.72,31.72,0,0,1-4.9.63c-4.48.35-9,.72-13.44.94-2.81.14-5.64,0-8.81,0v10.37a38,38,0,0,0,16.07.36,20.22,20.22,0,0,1,4.42-.57c2.08,0,3.18,1.34,3.31,3.44s-1.13,2.85-3,3.18a86.64,86.64,0,0,1-27.61.54c-3.31-.47-3.67-1-3.59-4.36.28-11.21.57-22.41.76-33.62a15.75,15.75,0,0,0-.8-4.82c-.75-2.42-1.08-4.64,1.08-6.54,2.5-2.2,6.1-2.87,8.68-1.66a8.71,8.71,0,0,0,2.83,1c5.65.49,11.3,1,17,1.25,3.59.18,7.19,0,10.79.06,3.08,0,4.17,1,4.12,3.45,0,2.26-1.62,3.41-4.35,3.32-7.77-.28-15.54-.53-23.31-.73C384.91,190.07,383.15,190.32,381.06,190.46Z"/><path d="M422,373.19l1.22,16.65c2.82.21,5.57.44,8.32.61,2.4.15,4.81.15,7.19.41a5.32,5.32,0,0,1,2.79,1.13c1.92,1.68,1.57,3.61-.91,4.26a38.69,38.69,0,0,1-7.51,1c-2.39.14-4.8-.15-7.19-.1-3.06.06-3.92,1.26-3.39,4.33.45,2.61.84,5.22,1.36,8.5,1.26.17,3.13.56,5,.64,3,.13,6,0,9,.05.75,0,1.51,0,2.25,0,2.69.26,4.69,1.52,4.41,2.93-.44,2.22-2.45,2.43-4.19,2.65-2.37.3-4.8.19-7.17.54-2.63.39-5.21,1.1-7.83,1.64a19.08,19.08,0,0,1-3.55.55c-3.9,0-7.8,0-11.7-.06a7.22,7.22,0,0,1-6.36-3.32c1.51-3.74,4.31-5,7.84-4.63,2.72-3.56,1.3-7.35,1.61-10.65l-7.84-4.66c1.59-4.14,4.83-4.9,8.21-5.61.52-4.35.81-8.39-1.59-12.26-.59-.95-.23-2.49-.33-4.26-1.27-.6-3-1.32-4.68-2.26-.69-.39-1.64-1.39-1.52-1.89a4.17,4.17,0,0,1,1.83-2.25,5.15,5.15,0,0,1,2.62-.47c5.54,0,11.08.09,16.61.22,4.29.1,8.57.29,12.85.52,3.38.18,6.75.47,9.94.69.84,4.07.71,4.78-2,5.15a85.6,85.6,0,0,1-12,.73C431.12,374,427,373.53,422,373.19Z"/><path d="M311.05,222.58l5.2-2.57c2.52,2.39,4.61,4.72,7.05,6.6s3.74,1.61,5.24-1.3a39.15,39.15,0,0,0,4.17-21.78c-.56-6.56-.31-13.2-.41-19.8,0-1,0-2,0-3.47-5.33.39-10.26.36-13.78-4.43,1.84-2.57,4.63-3.17,7.39-3.48a26,26,0,0,1,6.73.12c7.39,1.14,14.62-.57,21.92-1a12.33,12.33,0,0,1,2.23-.19,3.92,3.92,0,0,1,3.25,4.19c-.09,2.17-1.47,2.57-3.3,2.85-4.56.71-9.09,1.61-14.17,2.54,0,5.19-.22,10,0,14.72.45,7.84.27,15.62-1.8,23.22a42,42,0,0,1-3.63,9.15c-3.53,6.43-9,8.18-16,5.59C316.17,231.69,313.68,229.1,311.05,222.58Z"/><path d="M473.6,301.53c-3.15,0,3.7-.22.57.06s-5.5-1.11-7.72-2.93c-1.56-1.28-1.49-3.15.29-4a11.17,11.17,0,0,1,4.72-1c4.95,0-.12.27,4.83.37,7.78.15,15.57.18,23.35.39,9.88.27,19.76.65,29.64,1.07a6.7,6.7,0,0,1,3.81,1,6.19,6.19,0,0,1,1.89,3.7c.22,1.77-1.45,2.14-2.81,2.14-4.93,0-9.87.06-14.78-.26-7.73-.5-15.37-1.7-23.22-1-6.8.65-13.72.13-20.58.13Z"/><path d="M273,298.15a13.74,13.74,0,0,1,3.22-1.28,23.22,23.22,0,0,1,4.49.11c12.76,1,47.73.17,60.45-.8a46.66,46.66,0,0,1,5.39-.23,3.56,3.56,0,0,1,3.57,3.76c.06,2.27-1.6,2.79-3.27,2.91-3.88.3-7.78.43-11.67.57-9.14.32-40.52.63-49.66.9-1.65,0-3.3,0-4.95-.14C277.18,303.75,274.51,302.45,273,298.15Z"/><path d="M610.34,399.42c5.44-1.45,10.28-2.62,15-4.06,4.37-1.32,8.74-2.08,13.24-1,5.89,1.41,12.13,1.86,17.09,6,1.1.91,2.26,1.73,3.31,2.69,2.34,2.13,4.28,4.47,3.23,8s-4.1,4.72-7.08,6.13c-5.52,2.62-11.36,1.4-17.07,1.88-7.7.64-15.35,1.81-23.05,2.37-5,.37-10.13.07-16.2.07l-11.07,24.31.86,1.15c2-.64,4-1.13,5.9-1.95a75.75,75.75,0,0,1,25.29-6.45c9-.6,14.95,5,14.19,14-.3,3.59-2.38,6.13-6.94,6.42-10.48.68-20.86,3.11-31.46,2-4.62-.47-9.26-.83-13.9-.88a5.78,5.78,0,0,0-4,2c-1.21,1.5-1.76,3.53-2.91,6a29.27,29.27,0,0,0,4.5,0,48,48,0,0,1,18.16.43c6.24,1.28,10.05,6.4,8.81,12.43a19.24,19.24,0,0,1-7,11.06c-5.92,5-13.1,6.28-20.06,8.06-3.39.86-7.28.2-10.87-.29A102.37,102.37,0,0,1,555.3,497,4.6,4.6,0,0,0,550,498.6c-2.14,2.44-4.5,4.68-6.78,7-3.52,3.58-4.71,3.76-10.74,1.25,3-7.36,11-10.66,14.73-17.44-2.86-1.76-6-3-8.16-5.17a64.67,64.67,0,0,1-9.72-11.6c-4.71-7.58-2.66-16.95,3.94-23.31,2.77-2.67,5.65-1.34,7.68.45a49.28,49.28,0,0,1,9.33,10.29c2.56,4.07,3.93,8.9,5.83,13.39.52,1.24,1.11,2.45,2,4.41C565,470.18,569,461.6,573.5,453l-7.11-4.83C556.78,441.66,552.8,432,550.76,421c-.74-4-.34-7,2-10.15,2.22-3,3.42-3.52,6.4-1a59.74,59.74,0,0,1,8.5,8.68c3.79,4.77,7.16,9.87,10.74,14.81.83,1.14,1.77,2.2,2.75,3.41,5.4-1.51,4.22-7.06,6.51-10.36s3.24-7.7,4.84-11.77a17.54,17.54,0,0,0-2.45-1.47C578.71,409,574,399.2,570.32,389c-1.07-3-1-6.37-2.62-9.54-2.07-4.07,3.46-14.38,8-15.52a8.12,8.12,0,0,1,5.64,1.16c8,5.08,14.79,11.43,19.5,19.79.69,1.23,1.44,2.42,2.2,3.62.08.12.35.12,1.26.41,3-8,6.32-15.88,9-24,2.78-8.49,2.67-8.08-4.36-13.89-8.74-7.22-12.72-19-8.65-29.43.92-2.35,2.77-4.33,4.59-7.08,7.74,5.12,11.71,12.53,16.09,20.84.94-2.31,1.75-3.51,1.89-4.78.74-6.84,1.36-13.69,1.93-20.54a6.48,6.48,0,0,0-3.2-6.2c-3.07-2-6.1-4.06-9.26-5.9-5.78-3.38-11.68-6.53-17.42-10a18.81,18.81,0,0,1-4.49-4.1c-3-3.58-3.19-5.95-1-8.64,3.35-4.07,5.78-4.94,10-2.18a84.21,84.21,0,0,1,11.64,9.68c3.66,3.5,6.89,7.45,10.36,11.16a18.52,18.52,0,0,0,3.06,1.85,51.42,51.42,0,0,0-.84-6c-2.13-7.64-4.51-15.22-4.16-23.3.13-2.88-1.67-3.7-4.14-4.25-10.09-2.24-20.11-4.86-30.24-6.92a46.62,46.62,0,0,1-17.65-7.93c-4-2.81-4.24-6.44-1.19-10.41,2.7-3.52,6.13-5,10.54-5.07,5.9-.1,11.24,1.87,16.51,4,4.87,2,9.54,4.41,14.51,6.74.18-.62.6-1.28.42-1.6-2.87-5.11-5.65-10.28-8.86-15.17-.86-1.31-3-1.86-4.71-2.49-7-2.65-13.92-5.83-21.16-7.56-4.65-1.11-8.53-3.51-12.87-5a13.9,13.9,0,0,1-8.84-15.18,9.36,9.36,0,0,1,2.18-4.21,17.23,17.23,0,0,1,20.56-4c3.85,1.83,7.61,3.85,11.45,5.81l8.87-7c-1.36-6.38-2.79-13.31-4.33-20.21-1.44-6.46-2.36-12.88,1.55-18.86a52.91,52.91,0,0,1,3.92-4.7,11.08,11.08,0,0,1,6.42,9.59c.58,8.09.78,16.23.59,24.34-.14,6.26-1.1,12.5-1.77,19.55a18.73,18.73,0,0,0,3.59-1.65c4.57-3.7,8.9-7.72,13.64-11.19,9.29-6.8,18.79-13.31,28.2-19.93a3.41,3.41,0,0,1,1.1-.52c2.48-.62,5.23-2.24,7.32.26s-.22,4.5-1.59,6.44c-6.08,8.61-12.1,17.26-18.3,25.79-2,2.76-4.54,5.14-6.72,7.79A44.12,44.12,0,0,0,619.18,221l-7.94,4.33,6.12,12.94c1.48-1.21,3.24-1.93,3.62-3.09,2.25-6.87,8-10.8,13-15.06a79.1,79.1,0,0,1,19.47-12.29c7.14-3.11,12.22-.49,13.05,7.17s-1.88,14.49-5.12,21.07c-5.7,11.55-15.09,20-24.63,28.3-2.43,2.11-2.47,2.06-7.4,1.15-1.33,4.94.15,9.35,2.23,14.17a38.45,38.45,0,0,0,3.33-2.09c4.44-3.5,8.57-7.48,13.32-10.48,6-3.8,12.8-5.25,19.74-2.59a12.27,12.27,0,0,1,7,15.88c-2.6,6.29-5,12.7-11.64,16.57-4.26,2.47-7.5,6.71-11.16,10.19-4.71,4.48-9.3,9-16.15,10.26-1.28.24-2.91,2.42-3.13,3.89-1.08,7.25-2.09,14.42-5,21.28a8.12,8.12,0,0,0,1.29,8.9c1.58-1.06,3.07-2,4.53-3a45.69,45.69,0,0,1,26.31-8.51c3.37,0,6.71.44,8.07,4.18a8.4,8.4,0,0,1-2.57,10c-5.88,4.92-11.68,10-18.9,13a9.27,9.27,0,0,0-2.13,1.09c-9.14,7-15.56,9.52-27.17,10.23C614.74,384.84,611.21,391.16,610.34,399.42ZM658,213c-4.63.56-8.76,2.88-12.42,5.56a107.43,107.43,0,0,0-12.16,11c-8.42,8.44-13.36,19.4-5.26,32.44a10.13,10.13,0,0,0,1.46-.81c10.09-8,19.32-16.73,25.19-28.43a86.89,86.89,0,0,0,4.93-11C660.71,218.83,660.67,215.68,658,213Zm-21.72,97.11a39.72,39.72,0,0,0,5.5-3.1c6-4.8,11.87-9.77,17.82-14.64,4.59-3.77,6.9-9,8.75-14.36s-1.54-9.44-7.19-8.75a15.24,15.24,0,0,0-6.26,2.16c-4.91,3.18-9.71,6.57-14.34,10.15s-6.3,9-7,14.36C632.92,300.35,632.48,305.23,636.26,310.06ZM561.15,491.35c3.81,3.22,7.89,2.17,11.58,2.23,8.37.12,16.14-2.19,22.61-7.75,2.3-2,4.63-4.37,3.28-7.89-1.26-3.26-4.08-4.22-7.37-4.47-4.79-.36-9.48,0-13.54,2.67A165.62,165.62,0,0,0,564,486.21C562.59,487.35,562.08,489.58,561.15,491.35Zm32.78-83.52c6.4-6.56,7.41-13.65,2.26-20.07a120,120,0,0,0-14.07-14.15c-3.68-3.28-6.26-2.07-7,2.8a16,16,0,0,0,0,4.24C576.58,392.88,583.31,401.45,593.93,407.83Zm59.48,2.82c-1-6.22-5.7-7.22-9.82-8.49-10.44-3.22-20.48-.14-30.46,2.58-1.62.44-3.12,2-4.29,3.3a3,3,0,0,0,1.51,4.88,9.73,9.73,0,0,0,3,.33c9.34-.08,18.69,0,28-.4C645.33,412.67,649.23,411.44,653.41,410.64ZM596.12,215.73c-1-2.7-1.07-4.28-1.92-5.14-3.35-3.44-6.54-7.28-10.53-9.81-5.08-3.22-10.81-5.48-16.4-7.81a4.85,4.85,0,0,0-6.38,2.1,5.32,5.32,0,0,0,1,6.73,19.27,19.27,0,0,0,5.78,4.32c6.16,2.58,12.46,4.83,18.76,7.06C589,214.1,591.81,214.62,596.12,215.73Zm15.4,37.92A62.7,62.7,0,0,0,586,239.87c-2.67-.75-5.64-.63-8.47-.63-2.38,0-4.77,1-4.94,3.53-.09,1.26,1.8,2.73,2.94,4a5.51,5.51,0,0,0,2.08,1.23C588.51,252.21,599.94,253.25,611.52,253.65Zm.34-42.93c2.27-2.88,3.85-5,5.52-7,5.26-6.42,10.59-12.79,15.78-19.26.54-.67.36-1.91.75-4.31-4.72,3-8,5.83-11.86,7.32-4.36,1.7-6,5.93-9.38,8.43s-8,3.57-9.22,9.12Zm47.76,136.16c-3.57.69-6.26,1.1-8.88,1.75-8.12,2-15,5.93-19.55,13.24-1.44,2.32-2.8,4.79-1.52,7.79C643.68,364.23,656.87,354.6,659.63,346.88ZM595.21,454.75a55.88,55.88,0,0,0,26.89-2.16c1.53-.53,3.39-2.75,3.46-4.26.12-2.64-2.51-3.44-4.83-3.54a15.74,15.74,0,0,0-4.77.64,77.27,77.27,0,0,0-8,2.61C603.51,449.77,598.56,450.45,595.21,454.75Zm-44.49,25.74c-1.3-7.59-4.57-16-8.49-21-1-1.28-2.83-1.92-4.27-2.86-1,1.62-2.44,3.12-2.86,4.87C533.4,468.66,542.58,480.09,550.72,480.49Zm7.45-63.41c-1.46,5.61-.89,8.44,1.91,13.31,4,6.9,10.61,10.95,16.68,16.36a7.2,7.2,0,0,0-2.16-7.63c-4.56-4.31-7.12-9.82-9.89-15.21A15.94,15.94,0,0,0,558.17,417.08Zm49.16-89.64c-1.8,9.23,1.9,16.6,9.66,20.1C617.53,342.1,613,332.36,607.32,327.44Zm-9.46-159.65A18.45,18.45,0,0,0,597,154.3C594.72,159.39,594.84,162,597.87,167.79Zm27.37,204,.12-1.56c-1.43-.15-2.85-.33-4.28-.38a10.59,10.59,0,0,0-.29,1.61Zm-23.1-87.33,1.21-1.2-1.8-1.82-1.45,1.44Z"/><path d="M203.38,310.31c5.24-3.67,9.47-6.44,13.47-9.48,9-6.85,19.2-11.41,29.61-15.54a15.09,15.09,0,0,1,4.74-1,6.5,6.5,0,0,1,6.31,9.14c-.15.37-.36,1-.55,1-5.34.08-4.16,5.92-7.24,8.15-3.27,2.37-5.85,5.68-9.08,8.13-6.1,4.65-12.81,8.55-18.58,13.56-5.92,5.14-12.94,8.19-19.47,12.16-.16.1-.26.31-.6.74.18,4.71-.91,9.81,2.09,15.37,7.64-4.58,15-9.18,22.5-13.4,5.84-3.27,11.86-6.29,18-9a18.82,18.82,0,0,1,8.32-1.39c5.33.3,8.63,6,4.47,10-2.91,2.75-5.64,5.7-8.41,8.59-1.94,2-3.93,4-5.7,6.22a15.7,15.7,0,0,1-6.65,4.84c-2.47,1-4.49,4-5.88,6.56-3,5.51-8,8.47-12.89,11.74-3,2-6.18,1.42-9.17-.53-1.07,5.52,4.81,24.07,8.72,27.83.55-.55,1.38-1,1.61-1.68,3.15-9.44,11.21-13.71,19.26-17.52,7.24-3.42,15.89,1.23,17.08,8.4a6.11,6.11,0,0,1-.05,3c-1.69,4.57-3.08,9.32-5.41,13.55a200.79,200.79,0,0,1-11.71,18.52c-4.33,6.16-4.63,8.5-.53,14.73,2.91,4.42,5.71,8.92,8.64,13.32,1.09,1.64,2.41,3.12,4.13,5.32.89-2,1.37-3.22,2-4.38q4.3-8.38,8.68-16.73a6.87,6.87,0,0,1,1.21-1.36c4.67-4.91,9.73-6.58,14.09-4.64,4.62,2.05,8.1,9.08,7,15.09-2,11-4.67,21.9-9.88,32a10.49,10.49,0,0,1-1.66,2.5,25.36,25.36,0,0,1-3.27,2.3c1.63,1.07,2.71,2.26,4,2.54,9.54,2.05,19.13,3.92,28.7,5.85.8.16,1.61.25,2.41.42,5.89,1.26,6.51,2.91,2.87,8.29-5.88-1.06-11.91-2-17.84-3.28-7.92-1.76-15.8-3.75-23.62-5.88a18.17,18.17,0,0,1-6.5-3.22,17.17,17.17,0,0,0-11.84-3.86c-6.5.14-13-.21-19.51-.66a33.6,33.6,0,0,1-18.6-6.87c-3.17-2.43-3.86-5.54-3.18-9.23.64-3.45,3.4-4.4,6.18-5.12a31,31,0,0,1,16.87.05c6.11,1.81,12.29,3.38,18.61,5.1-3.72-8.5-14-22.78-17-24.49-3.35,1.44-6.09,3.23-9.06,3.76-5.31.94-5.69.3-5.41-6.1-2.49-.71-5.13-1.57-7.82-2.21-9.49-2.24-19.06-4.18-28.48-6.68A20.77,20.77,0,0,1,167,426.12c-3.71-5.56-1.34-12,5.13-12.68,9.12-1,18.25-1.3,27,2.46,4.25,1.82,8.71,3.14,13.19,4.73,1.64-3.45.44-6-.54-8.66-2.88-7.81-5.79-15.62-8.37-23.53-1.48-4.54-1.25-4.82-6.21-4.78-5.49,0-11,.4-16.46.6-8.65.31-17.12-.56-25-4.31a23.79,23.79,0,0,1-6.62-4.22c-4.92-4.87-3.5-12.22,2.8-15.16,5.36-2.5,11.13-2.42,16.81-1.7,8.06,1,16.07,2.41,24.11,3.62a22.61,22.61,0,0,0,2.56.09c1.6-2.44,1.43-4.86.72-7.56a48.09,48.09,0,0,1-1-7.74c-.38-4-.48-8-1.06-12-.55-3.74-3.48-5-6.83-6-9.28-3-18.65-5.93-26.78-11.51a29.76,29.76,0,0,1-7.21-7.25c-2.22-3.13-1.44-6.77.63-9.76,1.86-2.7,5-2.78,7.79-2a59.79,59.79,0,0,1,10.26,3.7c8.43,4.13,16.25,9.2,22.35,16.8,2.41-2.08,2-4.42,2.22-6.53,1.15-9.89,2.08-19.81,3.53-29.66a10.75,10.75,0,0,0-2-8.55q-6.55-8.82-13.21-17.56a24.06,24.06,0,0,1-4.58-21.27c1.62-6.63,5.27-8.08,10.56-3.65,4.17,3.49,7.69,7.77,11.31,11.87,2,2.24,3.55,4.83,5.95,8.15,2.27-5,4.32-9.06,6-13.27,1.78-4.54,3-9.29,4.84-13.8.86-2.13,1.08-3.94-.37-5.68-3.94-4.73-5.38-10.52-6.63-16.26-2.18-10-2.72-20.16-.3-30.28a19.12,19.12,0,0,1,.75-2.95c2.15-5.12,5.53-5.63,9.13-1.42l4.14,4.82c1.72-6.09,2.68-11.76,4.91-16.87a132.31,132.31,0,0,1,10.24-18.6c1.62-2.5,4-5.7,7.84-4.73s4.92,4.65,5.76,8c1.81,7.21-.1,14.14-2.15,21-.87,2.92-2.16,5.72-3.07,8.63-.32,1-.1,2.22-.15,4.2,1.62-.94,2.59-1.43,3.47-2,4.36-2.94,8.62-6,13.08-8.81,2.31-1.45,4.28-.06,5.91,1.69,2.28,2.45,4.67,5.2,2.76,8.63a57.72,57.72,0,0,1-7.92,11.43c-8.21,8.77-17.86,15.91-27.48,23.06-4.91,3.65-9,7.87-11.1,14-2.55,7.5-6,14.67-9.07,22a8.79,8.79,0,0,0-.48,5.19l7.08-5.06c2.32-1.65,4.58-3.4,7-4.92q11.29-7.2,22.69-14.23a17.72,17.72,0,0,1,4-1.38,5.53,5.53,0,0,1,6.88,2.48,5.92,5.92,0,0,1-.43,7.37,50,50,0,0,1-6,6.11c-8.29,7.13-16.72,14.08-25,21.22-4.93,4.26-9.55,8.88-14.55,13.05a28.15,28.15,0,0,1-8.23,5c-2.41.87-4.22,2.24-4.75,4.28A90.9,90.9,0,0,0,203.38,310.31Zm27.26,121.43c4.08-7,8-13.14,11.21-19.56a95,95,0,0,0,6-15.2,4.39,4.39,0,0,0-6.08-5.35,25.41,25.41,0,0,0-7.72,5.59,60.15,60.15,0,0,0-9.14,12.65c-2.82,5.46-2.87,9.85.58,14.6C227,426.57,228.49,428.7,230.64,431.73ZM266.1,481.5c1.35-2.24,3.08-4.28,3.9-6.64,2.32-6.66,4.55-13.39,6.23-20.23a23.18,23.18,0,0,0-.09-9.54c-.69-3.63-3.15-3.95-6.17-1.88-5.75,3.93-8.16,10-10.41,16C255.94,468.82,257.95,474.89,266.1,481.5ZM243.5,342.77l-.64-1.13a9.91,9.91,0,0,0-2.85.09c-7.26,2.43-13.26,7.84-21.1,8.95-.49.07-.86.83-1.35,1.19-3.19,2.4-6,5.43-10.3,6-2,.26-2.37,1.91-1.73,3.79a7.14,7.14,0,0,0,10.14,4.07c9.43-4.65,15.87-13.06,24.17-19.12A28.77,28.77,0,0,0,243.5,342.77Zm-10.44-158c8.81-6,18.44-34.46,14.7-43.43C238.44,148.2,229.87,173.52,233.05,184.81Zm-58,238a22.24,22.24,0,0,0,12.43,6.9c7.54,1.53,15.11,2.92,22.68,4.26,2.85.5,5.76.69,9.28,1.09C212.64,424,186.21,416.9,175,422.78ZM198.69,375c-.1-3.39-2.38-3.72-4.26-4-10.18-1.46-20.37-2.88-30.59-4-2.06-.22-4.4.73-6.38,1.63-2.37,1.08-2.36,3.43,0,4.54a25.63,25.63,0,0,0,5.78,1.79c8.21,1.72,16.49,1.42,24.77.77C191.53,375.43,195.09,375.21,198.69,375ZM188.63,238.83c-3.1,3.13-3.35,6.11-2,9,3.39,7.19,8.78,12.85,15.11,19.82.85-3.8,2.27-6.4,1.75-8.52C201.4,250.6,196.26,244.07,188.63,238.83Zm54.48,58.09c-15,3.13-25.42,13-36.4,22.06-1.29,1.06-3.16,2.11-2.11,4.42C213.51,321.56,239.78,303.66,243.11,296.92ZM219.2,175.68c-4.41,6.2-4.08,21.76.13,27.89,7.15-5.78,7.65-7.05,5.49-15.26a54,54,0,0,0-2.48-7.47A42.18,42.18,0,0,0,219.2,175.68Zm-4.72,297.46c.95,3.5,3.63,4.1,6.09,4.81,8.94,2.6,18,2.45,28,1.57C240.69,473.1,223.3,470,214.48,473.14ZM267.3,174.19c-9.76,1.17-29,16.71-32.53,26.18C247.24,193.29,257.21,184.41,267.3,174.19Zm-81.4,146.06c-3.11-6.06-9.27-8.23-14.8-10.86-2.9-1.38-6.48-3.21-10.5-.64C167.68,316.24,177,317.68,185.91,320.25Zm44.82-67.9c-5.52,1.82-7.6,3.78-8.8,8.12Zm8.94-5.91c-2.82-1-4.36-.33-4.55,3.46Z"/></svg>